<svg width="153" height="104" viewBox="0 0 153 104" fill="none" xmlns="http://www.w3.org/2000/svg">
<g clip-path="url(#clip0_4200_11)">
<path d="M19.272 101H15.4438V76.3394H30.5342V79.6548H19.272V101ZM35.627 92.9336C35.513 94.6084 35.2681 96.0667 34.8921 97.3086C34.5275 98.5391 33.9578 99.4904 33.1831 100.163C32.4198 100.835 31.3602 101.171 30.0044 101.171C29.6626 101.171 29.3664 101.148 29.1157 101.103C28.8651 101.068 28.6714 101.028 28.5347 100.983V97.7529C28.6258 97.7757 28.7511 97.7985 28.9106 97.8213C29.0701 97.8441 29.2638 97.8555 29.4917 97.8555C30.1183 97.8555 30.6139 97.6561 30.9785 97.2573C31.3431 96.8586 31.6165 96.2775 31.7988 95.5142C31.9925 94.7508 32.1292 93.8223 32.209 92.7285L32.8413 83.0215H46.0176V101H42.292V85.978H36.1226L35.627 92.9336ZM55.2974 101.325C54.1011 101.325 53.0529 101.097 52.1528 100.641C51.2528 100.185 50.5521 99.5474 50.0508 98.7271C49.5495 97.9067 49.2988 96.9611 49.2988 95.8901V95.856C49.2988 94.8078 49.5609 93.9077 50.085 93.1558C50.609 92.3924 51.3667 91.7886 52.3579 91.3442C53.3605 90.8999 54.5682 90.6379 55.981 90.5581L62.7827 90.1479V92.7456L56.4766 93.1387C55.3714 93.207 54.5169 93.4748 53.9131 93.9419C53.3206 94.3976 53.0244 95.0072 53.0244 95.7705V95.8047C53.0244 96.5908 53.3206 97.2118 53.9131 97.6675C54.5169 98.1232 55.3145 98.3511 56.3057 98.3511C57.1715 98.3511 57.9463 98.1745 58.6299 97.8213C59.3249 97.4681 59.8717 96.9839 60.2705 96.3687C60.6693 95.742 60.8687 95.0413 60.8687 94.2666V88.9175C60.8687 87.9263 60.561 87.1515 59.9458 86.5933C59.3306 86.0236 58.4476 85.7388 57.2969 85.7388C56.2373 85.7388 55.3828 85.9666 54.7334 86.4224C54.0954 86.8781 53.6966 87.4648 53.5371 88.1826L53.5029 88.3364H50.0166L50.0337 88.1484C50.1248 87.1117 50.4723 86.1831 51.0762 85.3628C51.68 84.5311 52.5174 83.876 53.5884 83.3975C54.6593 82.9189 55.9297 82.6797 57.3994 82.6797C58.8691 82.6797 60.1395 82.9246 61.2104 83.4146C62.2814 83.9045 63.1131 84.5938 63.7056 85.4824C64.298 86.3711 64.5942 87.4136 64.5942 88.6099V101H60.8687V98.1631H60.8003C60.4471 98.8125 59.9914 99.3765 59.4331 99.855C58.8748 100.322 58.2425 100.687 57.5361 100.949C56.8411 101.199 56.0949 101.325 55.2974 101.325ZM68.4736 101V83.0215H76.6426C78.3971 83.0215 79.7757 83.4316 80.7783 84.252C81.7809 85.0723 82.2822 86.1945 82.2822 87.6187V87.6528C82.2822 88.5871 81.986 89.4302 81.3936 90.1821C80.8125 90.9227 80.089 91.3784 79.2231 91.5493V91.686C79.9979 91.7886 80.6701 92.0278 81.2397 92.4038C81.8208 92.7684 82.2708 93.2412 82.5898 93.8223C82.9202 94.4033 83.0854 95.0641 83.0854 95.8047V95.8389C83.0854 96.887 82.8291 97.7985 82.3164 98.5732C81.8037 99.348 81.0745 99.9461 80.1289 100.368C79.1833 100.789 78.0553 101 76.7451 101H68.4736ZM72.1479 98.2656H76.0615C77.1097 98.2656 77.9072 98.0492 78.4541 97.6162C79.001 97.1833 79.2744 96.5396 79.2744 95.6851V95.6509C79.2744 94.7964 78.9725 94.1641 78.3687 93.7539C77.7648 93.3324 76.859 93.1216 75.6514 93.1216H72.1479V98.2656ZM72.1479 90.4385H75.4976C76.5457 90.4385 77.3262 90.2448 77.8389 89.8574C78.3516 89.4701 78.6079 88.8776 78.6079 88.0801V88.0459C78.6079 87.2939 78.3743 86.7243 77.9072 86.3369C77.4401 85.9495 76.7622 85.7559 75.8735 85.7559H72.1479V90.4385ZM98.1416 101V93.1899H90.0581V101H86.3496V83.0215H90.0581V90.2505H98.1416V83.0215H101.85V101H98.1416ZM111.079 101.325C109.882 101.325 108.834 101.097 107.934 100.641C107.034 100.185 106.333 99.5474 105.832 98.7271C105.331 97.9067 105.08 96.9611 105.08 95.8901V95.856C105.08 94.8078 105.342 93.9077 105.866 93.1558C106.39 92.3924 107.148 91.7886 108.139 91.3442C109.142 90.8999 110.349 90.6379 111.762 90.5581L118.564 90.1479V92.7456L112.258 93.1387C111.153 93.207 110.298 93.4748 109.694 93.9419C109.102 94.3976 108.806 95.0072 108.806 95.7705V95.8047C108.806 96.5908 109.102 97.2118 109.694 97.6675C110.298 98.1232 111.096 98.3511 112.087 98.3511C112.953 98.3511 113.728 98.1745 114.411 97.8213C115.106 97.4681 115.653 96.9839 116.052 96.3687C116.451 95.742 116.65 95.0413 116.65 94.2666V88.9175C116.65 87.9263 116.342 87.1515 115.727 86.5933C115.112 86.0236 114.229 85.7388 113.078 85.7388C112.019 85.7388 111.164 85.9666 110.515 86.4224C109.877 86.8781 109.478 87.4648 109.318 88.1826L109.284 88.3364H105.798L105.815 88.1484C105.906 87.1117 106.254 86.1831 106.857 85.3628C107.461 84.5311 108.299 83.876 109.37 83.3975C110.441 82.9189 111.711 82.6797 113.181 82.6797C114.65 82.6797 115.921 82.9246 116.992 83.4146C118.063 83.9045 118.894 84.5938 119.487 85.4824C120.079 86.3711 120.375 87.4136 120.375 88.6099V101H116.65V98.1631H116.582C116.228 98.8125 115.773 99.3765 115.214 99.855C114.656 100.322 114.024 100.687 113.317 100.949C112.622 101.199 111.876 101.325 111.079 101.325ZM134.526 101V94.8306H131.638L127.297 101H123.076L127.98 94.2153C126.739 93.828 125.753 93.1899 125.024 92.3013C124.306 91.4126 123.947 90.3473 123.947 89.1055V89.0713C123.947 87.8294 124.232 86.7585 124.802 85.8584C125.383 84.9469 126.192 84.2463 127.229 83.7563C128.277 83.2664 129.496 83.0215 130.886 83.0215H138.2V101H134.526ZM131.091 91.9766H134.526V85.9438H131.091C130.043 85.9438 129.217 86.223 128.613 86.7812C128.009 87.3281 127.707 88.0858 127.707 89.0542V89.0884C127.707 89.9315 128.009 90.6265 128.613 91.1733C129.217 91.7088 130.043 91.9766 131.091 91.9766Z" fill="white"/>
<path d="M111.125 63.375H106.25V41.4375L106.963 42.1505C107.421 42.6078 108.042 42.8645 108.69 42.8639C109.337 42.8633 109.958 42.6056 110.415 42.1474C110.872 41.6892 111.129 41.0681 111.129 40.4207C111.128 39.7733 110.87 39.1527 110.412 38.6953L80.446 8.73843C79.5319 7.82488 78.2924 7.31171 77 7.31171C75.7076 7.31171 74.4681 7.82488 73.554 8.73843L43.588 38.6953C43.131 39.1527 42.8744 39.7729 42.8747 40.4194C42.875 41.0659 43.1321 41.6859 43.5895 42.1428C44.0469 42.5998 44.667 42.8564 45.3136 42.8561C45.9601 42.8558 46.5801 42.5987 47.037 42.1413L47.75 41.4375V63.375H42.875C42.2285 63.375 41.6085 63.6318 41.1514 64.0889C40.6943 64.546 40.4375 65.166 40.4375 65.8125C40.4375 66.459 40.6943 67.0789 41.1514 67.5361C41.6085 67.9932 42.2285 68.25 42.875 68.25H111.125C111.771 68.25 112.391 67.9932 112.849 67.5361C113.306 67.0789 113.562 66.459 113.562 65.8125C113.562 65.166 113.306 64.546 112.849 64.0889C112.391 63.6318 111.771 63.375 111.125 63.375ZM52.625 36.5625L77 12.1875L101.375 36.5625V63.375H86.75V46.3125C86.75 45.666 86.4932 45.046 86.0361 44.5889C85.579 44.1318 84.959 43.875 84.3125 43.875H69.6875C69.041 43.875 68.421 44.1318 67.9639 44.5889C67.5068 45.046 67.25 45.666 67.25 46.3125V63.375H52.625V36.5625ZM81.875 63.375H72.125V48.75H81.875V63.375Z" fill="white"/>
</g>
<defs>
<clipPath id="clip0_4200_11">
<rect width="153" height="104" fill="white"/>
</clipPath>
</defs>
</svg>
