<svg xmlns="http://www.w3.org/2000/svg"  viewBox="0 0 24 24" width="48px" height="48px" baseProfile="basic"><linearGradient id="87AqUxYxn4hxYY6Pzo9b5a" x1="4.57" x2="19.43" y1="5.952" y2="20.813" gradientUnits="userSpaceOnUse"><stop offset="0" stop-color="#fff" stop-opacity=".6"/><stop offset="1" stop-color="#fff" stop-opacity=".3"/></linearGradient><path fill="url(#87AqUxYxn4hxYY6Pzo9b5a)" d="M18,21H6c-1.657,0-3-1.343-3-3V8.765c0-1.09,0.591-2.093,1.543-2.622l6-3.333 c0.906-0.503,2.008-0.503,2.914,0l6,3.333C20.409,6.672,21,7.676,21,8.765V18C21,19.657,19.657,21,18,21z"/><linearGradient id="87AqUxYxn4hxYY6Pzo9b5b" x1="4.57" x2="19.43" y1="5.952" y2="20.813" gradientUnits="userSpaceOnUse"><stop offset="0" stop-color="#fff" stop-opacity=".6"/><stop offset=".493" stop-color="#fff" stop-opacity="0"/><stop offset=".997" stop-color="#fff" stop-opacity=".3"/></linearGradient><path fill="url(#87AqUxYxn4hxYY6Pzo9b5b)" d="M12,2.932 c0.424,0,0.844,0.109,1.214,0.315l6,3.333C20.007,7.02,20.5,7.858,20.5,8.765V18c0,1.378-1.122,2.5-2.5,2.5H6 c-1.379,0-2.5-1.122-2.5-2.5V8.765c0-0.907,0.493-1.745,1.286-2.185l6-3.333C11.156,3.041,11.576,2.932,12,2.932 M12,2.432 c-0.502,0-1.004,0.126-1.457,0.378l-6,3.333C3.591,6.672,3,7.676,3,8.765V18c0,1.657,1.343,3,3,3h12c1.657,0,3-1.343,3-3V8.765 c0-1.09-0.591-2.093-1.543-2.622l-6-3.333C13.004,2.558,12.502,2.432,12,2.432L12,2.432z"/><linearGradient id="87AqUxYxn4hxYY6Pzo9b5c" x1="8.793" x2="15.207" y1="14.379" y2="20.793" gradientUnits="userSpaceOnUse"><stop offset="0" stop-color="#fff" stop-opacity=".7"/><stop offset=".519" stop-color="#fff" stop-opacity=".45"/><stop offset="1" stop-color="#fff" stop-opacity=".55"/></linearGradient><path fill="url(#87AqUxYxn4hxYY6Pzo9b5c)" d="M15,21H9v-6c0-1.105,0.895-2,2-2h2	c1.105,0,2,0.895,2,2V21z"/></svg>