<svg xmlns="http://www.w3.org/2000/svg"  viewBox="0 0 24 24" width="48px" height="48px" baseProfile="basic"><linearGradient id="z9JUwvx2kbGo1QL9Yi8xAa" x1="2.629" x2="21.164" y1="3.129" y2="21.664" gradientUnits="userSpaceOnUse"><stop offset="0" stop-color="#fff" stop-opacity=".6"/><stop offset="1" stop-color="#fff" stop-opacity=".3"/></linearGradient><path fill="url(#z9JUwvx2kbGo1QL9Yi8xAa)" d="M21,16h-2V6c0-1.657-1.343-3-3-3H4C2.343,3,1,4.343,1,6v1c0,1.105,0.895,2,2,2h1v9 c0,1.657,1.343,3,3,3h14c1.105,0,2-0.895,2-2v-1C23,16.895,22.105,16,21,16z"/><linearGradient id="z9JUwvx2kbGo1QL9Yi8xAb" x1="2.629" x2="21.164" y1="3.129" y2="21.664" gradientUnits="userSpaceOnUse"><stop offset="0" stop-color="#fff" stop-opacity=".6"/><stop offset=".493" stop-color="#fff" stop-opacity="0"/><stop offset=".997" stop-color="#fff" stop-opacity=".3"/></linearGradient><path fill="url(#z9JUwvx2kbGo1QL9Yi8xAb)" d="M16,3.5c1.379,0,2.5,1.122,2.5,2.5v10v0.5 H19h2c0.827,0,1.5,0.673,1.5,1.5v1c0,0.827-0.673,1.5-1.5,1.5H7c-1.378,0-2.5-1.121-2.5-2.5V9V8.5H4H3C2.173,8.5,1.5,7.827,1.5,7V6 c0-1.378,1.122-2.5,2.5-2.5H16 M16,3H4C2.343,3,1,4.343,1,6v1c0,1.105,0.895,2,2,2h1v9c0,1.657,1.343,3,3,3h14c1.105,0,2-0.895,2-2 v-1c0-1.105-0.895-2-2-2h-2V6C19,4.343,17.657,3,16,3L16,3z"/><linearGradient id="z9JUwvx2kbGo1QL9Yi8xAc" x1="4.422" x2="11.957" y1="1.336" y2="8.871" gradientUnits="userSpaceOnUse"><stop offset="0" stop-color="#fff" stop-opacity=".7"/><stop offset=".519" stop-color="#fff" stop-opacity=".45"/><stop offset="1" stop-color="#fff" stop-opacity=".55"/></linearGradient><path fill="url(#z9JUwvx2kbGo1QL9Yi8xAc)" d="M13,6v1c0,1.105-0.895,2-2,2H3	C1.895,9,1,8.105,1,7V6c0-1.657,1.343-3,3-3h12h0C14.343,3,13,4.343,13,6z"/><linearGradient id="z9JUwvx2kbGo1QL9Yi8xAd" x1="18.75" x2="22.664" y1="16.25" y2="20.164" gradientUnits="userSpaceOnUse"><stop offset="0" stop-color="#fff" stop-opacity=".7"/><stop offset=".519" stop-color="#fff" stop-opacity=".45"/><stop offset="1" stop-color="#fff" stop-opacity=".55"/></linearGradient><path fill="url(#z9JUwvx2kbGo1QL9Yi8xAd)" d="M21,16h-2v3c0,1.105,0.895,2,2,2h0	c1.105,0,2-0.895,2-2v-1C23,16.895,22.105,16,21,16z"/></svg>