<svg width="153" height="104" viewBox="0 0 153 104" fill="none" xmlns="http://www.w3.org/2000/svg">
<g clip-path="url(#clip0_4201_217)">
<path d="M35.272 101H31.4438V76.3394H35.272V86.9351H36.2461L45.4233 76.3394H50.0034L39.1172 88.4731L39.1343 87.7041L51.0288 101H46.0557L36.2461 89.9429H35.272V101ZM64.7861 101V93.1899H56.7026V101H52.9941V83.0215H56.7026V90.2505H64.7861V83.0215H68.4946V101H64.7861ZM72.4424 101V83.0215H76.1167V95.5825H77.9111L75.3477 96.9839L84.5249 83.0215H88.1821V101H84.4907V88.3877H82.7134L85.2598 86.9863L76.0825 101H72.4424ZM104.042 85.9609H95.8384V101H92.1299V83.0215H104.042V85.9609ZM107.169 101V83.0215H110.843V95.5825H112.638L110.074 96.9839L119.251 83.0215H122.909V101H119.217V88.3877H117.44L119.986 86.9863L110.809 101H107.169Z" fill="white"/>
<path d="M111.296 59.5568L100.794 9.62792C100.658 8.97499 100.395 8.35533 100.019 7.80454C99.6426 7.25375 99.1615 6.78268 98.6029 6.4184C98.0442 6.05412 97.4191 5.8038 96.7635 5.68183C96.1078 5.55985 95.4345 5.56863 94.7823 5.70765L79.9713 8.8907C78.6612 9.17755 77.5174 9.97007 76.7886 11.0959C76.0597 12.2217 75.8049 13.5897 76.0795 14.9024L86.581 64.8313C86.815 65.9705 87.4341 66.9943 88.3342 67.7307C89.2342 68.4671 90.3604 68.8712 91.5233 68.875C91.8828 68.8745 92.2412 68.8363 92.5927 68.7611L107.404 65.578C108.715 65.2905 109.86 64.4964 110.589 63.3687C111.318 62.2409 111.572 60.8709 111.296 59.5568ZM81.0312 13.8678C81.0312 13.8488 81.0312 13.8393 81.0312 13.8393L95.8391 10.6752L96.8927 15.6966L82.0849 18.8828L81.0312 13.8678ZM83.1259 23.8251L97.94 20.6452L98.9968 25.6761L84.1953 28.8591L83.1259 23.8251ZM85.2268 33.814L100.041 30.631L104.249 50.6405L89.435 53.8235L85.2268 33.814ZM106.344 60.6295L91.5359 63.7935L90.4823 58.7721L105.29 55.5859L106.344 60.601C106.344 60.62 106.344 60.6295 106.344 60.6295ZM70.9062 8.125H55.7188C54.3761 8.125 53.0884 8.65836 52.139 9.60777C51.1896 10.5572 50.6563 11.8448 50.6562 13.1875V63.8125C50.6562 65.1552 51.1896 66.4428 52.139 67.3922C53.0884 68.3416 54.3761 68.875 55.7188 68.875H70.9062C72.2489 68.875 73.5366 68.3416 74.486 67.3922C75.4354 66.4428 75.9688 65.1552 75.9688 63.8125V13.1875C75.9688 11.8448 75.4354 10.5572 74.486 9.60777C73.5366 8.65836 72.2489 8.125 70.9062 8.125ZM55.7188 13.1875H70.9062V18.25H55.7188V13.1875ZM55.7188 23.3125H70.9062V53.6875H55.7188V23.3125ZM70.9062 63.8125H55.7188V58.75H70.9062V63.8125Z" fill="white"/>
</g>
<defs>
<clipPath id="clip0_4201_217">
<rect width="153" height="104" fill="white"/>
</clipPath>
</defs>
</svg>
