<svg xmlns="http://www.w3.org/2000/svg"  viewBox="0 0 24 24" width="48px" height="48px" baseProfile="basic"><linearGradient id="BMvxgiR9vWNAAGHIVyQ6qa" x1="3" x2="19.828" y1="3.586" y2="20.414" gradientUnits="userSpaceOnUse"><stop offset="0" stop-color="#fff" stop-opacity=".6"/><stop offset="1" stop-color="#fff" stop-opacity=".3"/></linearGradient><path fill="url(#BMvxgiR9vWNAAGHIVyQ6qa)" d="M4,21V3c0-0.552,0.448-1,1-1h12c1.657,0,3,1.343,3,3v14c0,1.657-1.343,3-3,3H5 C4.448,22,4,21.552,4,21z"/><linearGradient id="BMvxgiR9vWNAAGHIVyQ6qb" x1="3" x2="19.828" y1="3.586" y2="20.414" gradientUnits="userSpaceOnUse"><stop offset="0" stop-color="#fff" stop-opacity=".6"/><stop offset=".493" stop-color="#fff" stop-opacity="0"/><stop offset=".997" stop-color="#fff" stop-opacity=".3"/></linearGradient><path fill="url(#BMvxgiR9vWNAAGHIVyQ6qb)" d="M17,2.5c1.379,0,2.5,1.122,2.5,2.5v14 c0,1.378-1.121,2.5-2.5,2.5H5c-0.276,0-0.5-0.224-0.5-0.5V3c0-0.276,0.224-0.5,0.5-0.5H17 M17,2H5C4.448,2,4,2.448,4,3v18 c0,0.552,0.448,1,1,1h12c1.657,0,3-1.343,3-3V5C20,3.343,18.657,2,17,2L17,2z"/><linearGradient id="BMvxgiR9vWNAAGHIVyQ6qc" x1="6.615" x2="14.385" y1="3.385" y2="11.156" gradientUnits="userSpaceOnUse"><stop offset="0" stop-color="#fff" stop-opacity=".7"/><stop offset=".519" stop-color="#fff" stop-opacity=".45"/><stop offset="1" stop-color="#fff" stop-opacity=".55"/></linearGradient><path fill="url(#BMvxgiR9vWNAAGHIVyQ6qc)" d="M13,2H8v10.216	c0,0.656,0.759,1.021,1.271,0.611l1.229-0.983l1.229,0.983C12.241,13.237,13,12.872,13,12.216V2z"/></svg>