<svg width="153" height="104" viewBox="0 0 153 104" fill="none" xmlns="http://www.w3.org/2000/svg">
<g clip-path="url(#clip0_4201_231)">
<path d="M33.3491 101.188C32.9731 101.188 32.6313 101.16 32.3237 101.103C32.0275 101.057 31.8224 101.011 31.7085 100.966V97.6846C31.8794 97.7188 32.0902 97.7529 32.3408 97.7871C32.5915 97.8099 32.8535 97.8213 33.127 97.8213C33.6966 97.8213 34.2093 97.7415 34.665 97.582C35.1322 97.4225 35.5537 97.1776 35.9297 96.8472C36.3057 96.5054 36.6475 96.061 36.9551 95.5142L28.6152 76.3394H32.6997L38.8691 91.481H39.1084L45.0898 76.3394H49.106L41.5522 93.9419C40.8003 95.7078 40.0426 97.1263 39.2793 98.1973C38.516 99.2568 37.6615 100.02 36.7158 100.487C35.7702 100.954 34.6479 101.188 33.3491 101.188ZM50.4048 106.981V83.0215H54.1304V86.0977H54.2158C54.569 85.3913 55.019 84.7817 55.5659 84.269C56.1242 83.7563 56.7622 83.3633 57.48 83.0898C58.1978 82.8164 58.9839 82.6797 59.8384 82.6797C61.3651 82.6797 62.6924 83.0614 63.8203 83.8247C64.9482 84.5767 65.8198 85.6533 66.4351 87.0547C67.0503 88.4447 67.3579 90.0967 67.3579 92.0107V92.0278C67.3579 93.9419 67.0446 95.5939 66.418 96.9839C65.8027 98.3739 64.9368 99.4505 63.8203 100.214C62.7038 100.977 61.3936 101.359 59.8896 101.359C59.0465 101.359 58.2547 101.222 57.5142 100.949C56.785 100.675 56.1413 100.288 55.583 99.7866C55.0247 99.2739 54.5633 98.6701 54.1987 97.9751H54.1304V106.981H50.4048ZM58.8643 98.1631C59.8327 98.1631 60.6701 97.9181 61.3765 97.4282C62.0828 96.9269 62.624 96.2148 63 95.292C63.376 94.3691 63.564 93.2811 63.564 92.0278V92.0107C63.564 90.7347 63.376 89.6353 63 88.7124C62.624 87.7896 62.0828 87.0832 61.3765 86.5933C60.6701 86.1034 59.8327 85.8584 58.8643 85.8584C57.93 85.8584 57.104 86.1147 56.3862 86.6274C55.6685 87.1287 55.1045 87.8408 54.6943 88.7637C54.2956 89.6751 54.0962 90.7575 54.0962 92.0107V92.0278C54.0962 93.2697 54.3013 94.3521 54.7114 95.2749C55.1216 96.1864 55.6799 96.8984 56.3862 97.4111C57.104 97.9124 57.93 98.1631 58.8643 98.1631ZM78.2612 101.359C76.5409 101.359 75.0369 100.983 73.7495 100.231C72.4735 99.4676 71.4823 98.391 70.7759 97.001C70.0695 95.5996 69.7163 93.9362 69.7163 92.0107V91.9766C69.7163 90.0625 70.0695 88.4105 70.7759 87.0205C71.4937 85.6305 72.4906 84.5596 73.7666 83.8076C75.054 83.0557 76.5465 82.6797 78.2441 82.6797C79.9531 82.6797 81.4456 83.0557 82.7217 83.8076C84.0091 84.5482 85.006 85.6134 85.7124 87.0034C86.4302 88.3934 86.7891 90.0511 86.7891 91.9766V92.0107C86.7891 93.9476 86.4302 95.611 85.7124 97.001C85.006 98.391 84.0148 99.4676 82.7388 100.231C81.4627 100.983 79.9702 101.359 78.2612 101.359ZM78.2783 98.2485C79.2354 98.2485 80.0671 98.0036 80.7734 97.5137C81.4798 97.0238 82.0267 96.3174 82.4141 95.3945C82.8014 94.4603 82.9951 93.3324 82.9951 92.0107V91.9766C82.9951 90.6663 82.8014 89.5498 82.4141 88.627C82.0267 87.6927 81.4741 86.9863 80.7563 86.5078C80.0386 86.0179 79.2012 85.7729 78.2441 85.7729C77.2985 85.7729 76.4668 86.0179 75.749 86.5078C75.0426 86.9977 74.4901 87.7041 74.0913 88.627C73.6925 89.5498 73.4932 90.6663 73.4932 91.9766V92.0107C73.4932 93.3324 73.6868 94.4603 74.0742 95.3945C74.473 96.3174 75.0312 97.0238 75.749 97.5137C76.4668 98.0036 77.3099 98.2485 78.2783 98.2485ZM94.3257 92.9849H93.6763V101H89.9678V83.0215H93.6763V90.4214H94.3257L100.837 83.0215H105.195L97.4531 91.6519V91.2588L105.502 101H100.922L94.3257 92.9849ZM107.878 101V83.0215H111.552V95.5825H113.347L110.783 96.9839L119.96 83.0215H123.618V101H119.926V88.3877H118.149L120.695 86.9863L111.518 101H107.878Z" fill="white"/>
<path d="M87.8181 34.2728L73.5681 24.7728C73.2104 24.5341 72.7945 24.3971 72.3649 24.3762C71.9354 24.3554 71.5082 24.4517 71.129 24.6546C70.7499 24.8576 70.433 25.1598 70.2121 25.5288C69.9912 25.8978 69.8747 26.3199 69.875 26.75V45.75C69.8747 46.1801 69.9912 46.6022 70.2121 46.9712C70.433 47.3402 70.7499 47.6424 71.129 47.8454C71.5082 48.0483 71.9354 48.1446 72.3649 48.1238C72.7945 48.1029 73.2104 47.9659 73.5681 47.7272L87.8181 38.2272C88.1439 38.0104 88.4111 37.7165 88.5958 37.3715C88.7806 37.0266 88.8773 36.6413 88.8773 36.25C88.8773 35.8587 88.7806 35.4734 88.5958 35.1285C88.4111 34.7835 88.1439 34.4896 87.8181 34.2728ZM74.625 41.3117V31.2031L82.2191 36.25L74.625 41.3117ZM103.125 14.875H50.875C49.6152 14.875 48.407 15.3754 47.5162 16.2662C46.6254 17.157 46.125 18.3652 46.125 19.625V52.875C46.125 54.1348 46.6254 55.343 47.5162 56.2338C48.407 57.1246 49.6152 57.625 50.875 57.625H103.125C104.385 57.625 105.593 57.1246 106.484 56.2338C107.375 55.343 107.875 54.1348 107.875 52.875V19.625C107.875 18.3652 107.375 17.157 106.484 16.2662C105.593 15.3754 104.385 14.875 103.125 14.875ZM103.125 52.875H50.875V19.625H103.125V52.875ZM107.875 64.75C107.875 65.3799 107.625 65.984 107.179 66.4294C106.734 66.8748 106.13 67.125 105.5 67.125H48.5C47.8701 67.125 47.266 66.8748 46.8206 66.4294C46.3752 65.984 46.125 65.3799 46.125 64.75C46.125 64.1201 46.3752 63.516 46.8206 63.0706C47.266 62.6252 47.8701 62.375 48.5 62.375H105.5C106.13 62.375 106.734 62.6252 107.179 63.0706C107.625 63.516 107.875 64.1201 107.875 64.75Z" fill="white"/>
</g>
<defs>
<clipPath id="clip0_4201_231">
<rect width="153" height="104" fill="white"/>
</clipPath>
</defs>
</svg>
