<svg width="153" height="104" viewBox="0 0 153 104" fill="none" xmlns="http://www.w3.org/2000/svg">
<g clip-path="url(#clip0_4201_222)">
<path d="M25.0239 90.0283V86.7812H28.4077C29.8774 86.7812 31.0509 86.4167 31.9282 85.6875C32.8055 84.9469 33.2441 83.9899 33.2441 82.8164V82.7822C33.2441 82.0531 33.0618 81.4321 32.6973 80.9194C32.3327 80.3953 31.8029 79.9966 31.1079 79.7231C30.4129 79.4383 29.5698 79.2959 28.5786 79.2959C27.6216 79.2959 26.7842 79.4326 26.0664 79.7061C25.36 79.9681 24.7961 80.3498 24.3745 80.8511C23.953 81.341 23.6966 81.9391 23.6055 82.6455L23.5713 82.8848H19.897L19.9141 82.6626C19.9938 81.2612 20.404 80.0592 21.1445 79.0566C21.8851 78.054 22.8991 77.285 24.1865 76.7495C25.474 76.2026 26.9779 75.9292 28.6982 75.9292C30.3617 75.9292 31.82 76.2026 33.0732 76.7495C34.3265 77.2964 35.3006 78.054 35.9956 79.0225C36.702 79.9909 37.0552 81.1074 37.0552 82.3721V82.4062C37.0552 83.7734 36.6336 84.9811 35.7905 86.0293C34.9474 87.0661 33.8423 87.744 32.4751 88.063V88.1997C34.1271 88.4048 35.4259 89.0542 36.3716 90.1479C37.3172 91.2417 37.79 92.6146 37.79 94.2666V94.3008C37.79 95.6566 37.3913 96.87 36.5938 97.9409C35.8076 99.0119 34.7253 99.8607 33.3467 100.487C31.9681 101.103 30.3958 101.41 28.6299 101.41C26.807 101.41 25.2062 101.125 23.8276 100.556C22.4604 99.986 21.3781 99.1885 20.5806 98.1631C19.7944 97.1263 19.3615 95.93 19.2817 94.5742L19.2646 94.3691H23.0244L23.0415 94.5059C23.1326 95.2578 23.4118 95.9015 23.8789 96.437C24.346 96.9611 24.9784 97.3599 25.7759 97.6333C26.5848 97.9067 27.5361 98.0435 28.6299 98.0435C29.6895 98.0435 30.6123 97.884 31.3984 97.5649C32.1846 97.2459 32.7941 96.7902 33.2271 96.1978C33.66 95.6053 33.8765 94.9103 33.8765 94.1128V94.0786C33.8765 92.8026 33.4036 91.8114 32.458 91.105C31.5238 90.3872 30.2078 90.0283 28.5103 90.0283H25.0239ZM46.3179 101.325C45.1216 101.325 44.0734 101.097 43.1733 100.641C42.2733 100.185 41.5726 99.5474 41.0713 98.7271C40.57 97.9067 40.3193 96.9611 40.3193 95.8901V95.856C40.3193 94.8078 40.5814 93.9077 41.1055 93.1558C41.6296 92.3924 42.3872 91.7886 43.3784 91.3442C44.381 90.8999 45.5887 90.6379 47.0015 90.5581L53.8032 90.1479V92.7456L47.4971 93.1387C46.3919 93.207 45.5374 93.4748 44.9336 93.9419C44.3411 94.3976 44.0449 95.0072 44.0449 95.7705V95.8047C44.0449 96.5908 44.3411 97.2118 44.9336 97.6675C45.5374 98.1232 46.335 98.3511 47.3262 98.3511C48.1921 98.3511 48.9668 98.1745 49.6504 97.8213C50.3454 97.4681 50.8923 96.9839 51.291 96.3687C51.6898 95.742 51.8892 95.0413 51.8892 94.2666V88.9175C51.8892 87.9263 51.5815 87.1515 50.9663 86.5933C50.3511 86.0236 49.4681 85.7388 48.3174 85.7388C47.2578 85.7388 46.4033 85.9666 45.7539 86.4224C45.1159 86.8781 44.7171 87.4648 44.5576 88.1826L44.5234 88.3364H41.0371L41.0542 88.1484C41.1453 87.1117 41.4928 86.1831 42.0967 85.3628C42.7005 84.5311 43.5379 83.876 44.6089 83.3975C45.6799 82.9189 46.9502 82.6797 48.4199 82.6797C49.8896 82.6797 51.16 82.9246 52.231 83.4146C53.3019 83.9045 54.1336 84.5938 54.7261 85.4824C55.3185 86.3711 55.6147 87.4136 55.6147 88.6099V101H51.8892V98.1631H51.8208C51.4676 98.8125 51.0119 99.3765 50.4536 99.855C49.8953 100.322 49.263 100.687 48.5566 100.949C47.8617 101.199 47.1154 101.325 46.3179 101.325ZM61.2544 105.871H57.8364V98.0435H59.2891C59.9499 97.6219 60.4398 96.9212 60.7588 95.9414C61.0892 94.9616 61.2943 93.8678 61.374 92.6602L62.0234 83.0215H75.1484V98.0435H77.9341V105.871H74.5161V101H61.2544V105.871ZM71.4229 98.0435V85.9951H65.2192L64.7236 92.814C64.6439 93.8849 64.4901 94.8647 64.2622 95.7534C64.0343 96.6307 63.7039 97.3656 63.271 97.958V98.0435H71.4229ZM85.7271 101.325C84.5308 101.325 83.4826 101.097 82.5825 100.641C81.6825 100.185 80.9818 99.5474 80.4805 98.7271C79.9792 97.9067 79.7285 96.9611 79.7285 95.8901V95.856C79.7285 94.8078 79.9906 93.9077 80.5146 93.1558C81.0387 92.3924 81.7964 91.7886 82.7876 91.3442C83.7902 90.8999 84.9979 90.6379 86.4106 90.5581L93.2124 90.1479V92.7456L86.9062 93.1387C85.8011 93.207 84.9466 93.4748 84.3428 93.9419C83.7503 94.3976 83.4541 95.0072 83.4541 95.7705V95.8047C83.4541 96.5908 83.7503 97.2118 84.3428 97.6675C84.9466 98.1232 85.7441 98.3511 86.7354 98.3511C87.6012 98.3511 88.376 98.1745 89.0596 97.8213C89.7546 97.4681 90.3014 96.9839 90.7002 96.3687C91.099 95.742 91.2983 95.0413 91.2983 94.2666V88.9175C91.2983 87.9263 90.9907 87.1515 90.3755 86.5933C89.7603 86.0236 88.8773 85.7388 87.7266 85.7388C86.667 85.7388 85.8125 85.9666 85.1631 86.4224C84.5251 86.8781 84.1263 87.4648 83.9668 88.1826L83.9326 88.3364H80.4463L80.4634 88.1484C80.5545 87.1117 80.902 86.1831 81.5059 85.3628C82.1097 84.5311 82.9471 83.876 84.0181 83.3975C85.089 82.9189 86.3594 82.6797 87.8291 82.6797C89.2988 82.6797 90.5692 82.9246 91.6401 83.4146C92.7111 83.9045 93.5428 84.5938 94.1353 85.4824C94.7277 86.3711 95.0239 87.4136 95.0239 88.6099V101H91.2983V98.1631H91.23C90.8768 98.8125 90.4211 99.3765 89.8628 99.855C89.3045 100.322 88.6722 100.687 87.9658 100.949C87.2708 101.199 86.5246 101.325 85.7271 101.325ZM113.43 101H109.721V93.2583H109.636C109.089 93.7938 108.411 94.2039 107.602 94.4888C106.805 94.7622 105.956 94.8989 105.056 94.8989C102.937 94.8989 101.313 94.3236 100.185 93.1729C99.0571 92.0221 98.4932 90.4727 98.4932 88.5244V83.0215H102.202V88.0972C102.202 89.2935 102.526 90.1935 103.176 90.7974C103.825 91.4012 104.777 91.7031 106.03 91.7031C106.531 91.7031 107.015 91.6519 107.482 91.5493C107.961 91.4354 108.388 91.2816 108.764 91.0879C109.152 90.8828 109.471 90.6436 109.721 90.3701V83.0215H113.43V101ZM117.395 101V83.0215H121.069V95.5825H122.863L120.3 96.9839L129.477 83.0215H133.134V101H129.443V88.3877H127.666L130.212 86.9863L121.035 101H117.395Z" fill="white"/>
<path d="M113.724 24.7515L77.6302 5.50148C77.282 5.3161 76.8937 5.21915 76.4992 5.21915C76.1048 5.21915 75.7165 5.3161 75.3683 5.50148L39.2746 24.7515C38.8896 24.9567 38.5676 25.2626 38.3431 25.6367C38.1186 26.0107 38 26.4388 38 26.875C38 27.3112 38.1186 27.7393 38.3431 28.1133C38.5676 28.4874 38.8896 28.7933 39.2746 28.9985L47.6242 33.4531V48.0169C47.6217 49.1989 48.0567 50.3399 48.8454 51.2202C52.7857 55.6086 61.6136 62.9687 76.4992 62.9687C81.4349 63.0096 86.3337 62.1155 90.9367 60.3339V70.1875C90.9367 70.8257 91.1903 71.4377 91.6415 71.889C92.0928 72.3402 92.7048 72.5937 93.343 72.5937C93.9812 72.5937 94.5932 72.3402 95.0445 71.889C95.4957 71.4377 95.7492 70.8257 95.7492 70.1875V58.0089C98.887 56.1975 101.722 53.907 104.153 51.2202C104.942 50.3399 105.377 49.1989 105.374 48.0169V33.4531L113.724 28.9985C114.109 28.7933 114.431 28.4874 114.655 28.1133C114.88 27.7393 114.998 27.3112 114.998 26.875C114.998 26.4388 114.88 26.0107 114.655 25.6367C114.431 25.2626 114.109 24.9567 113.724 24.7515ZM76.4992 58.1562C63.4844 58.1562 55.8296 51.7977 52.4367 48.0169V36.0187L75.3683 48.2485C75.7165 48.4339 76.1048 48.5308 76.4992 48.5308C76.8937 48.5308 77.282 48.4339 77.6302 48.2485L90.9367 41.1531V55.0913C87.1469 56.8599 82.3705 58.1562 76.4992 58.1562ZM100.562 48.0049C99.1193 49.6055 97.5055 51.0428 95.7492 52.291V38.5844L100.562 36.0187V48.0049ZM94.5461 33.7749L94.48 33.7358L77.6362 24.7515C77.0742 24.4644 76.422 24.4096 75.82 24.5989C75.218 24.7882 74.7145 25.2063 74.4178 25.7633C74.1212 26.3202 74.0552 26.9715 74.2341 27.5766C74.4131 28.1817 74.8225 28.6924 75.3743 28.9985L89.4328 36.5L76.4992 43.3969L45.5188 26.875L76.4992 10.3531L107.48 26.875L94.5461 33.7749Z" fill="white"/>
</g>
<defs>
<clipPath id="clip0_4201_222">
<rect width="153" height="104" fill="white"/>
</clipPath>
</defs>
</svg>
