<svg xmlns="http://www.w3.org/2000/svg"  viewBox="0 0 24 24" width="48px" height="48px" baseProfile="basic"><linearGradient id="zpuvCWNyrhxL7Gyg7VyzFa" x1="9.275" x2="14.058" y1="9.931" y2="14.715" gradientUnits="userSpaceOnUse"><stop offset="0" stop-color="#fff" stop-opacity=".6"/><stop offset="1" stop-color="#fff" stop-opacity=".3"/></linearGradient><path fill="url(#zpuvCWNyrhxL7Gyg7VyzFa)" d="M20.011,3.989c-1.318-1.318-3.455-1.318-4.773,0L4.208,14.998 c-0.302,0.302-0.503,0.689-0.576,1.11l-0.615,3.567c-0.133,0.772,0.538,1.442,1.31,1.308l3.525-0.613 c0.418-0.073,0.804-0.273,1.104-0.573L20.011,8.761C21.33,7.443,21.33,5.307,20.011,3.989z"/><linearGradient id="zpuvCWNyrhxL7Gyg7VyzFb" x1="3" x2="21" y1="12" y2="12" gradientUnits="userSpaceOnUse"><stop offset="0" stop-color="#fff" stop-opacity=".6"/><stop offset=".493" stop-color="#fff" stop-opacity="0"/><stop offset=".997" stop-color="#fff" stop-opacity=".3"/></linearGradient><path fill="url(#zpuvCWNyrhxL7Gyg7VyzFb)" d="M17.625,3.5 c0.768,0,1.49,0.299,2.033,0.842C20.201,4.885,20.5,5.607,20.5,6.375c0,0.768-0.299,1.49-0.842,2.033L8.603,19.443 c-0.229,0.228-0.518,0.378-0.837,0.434L4.241,20.49c-0.038,0.007-0.075,0.01-0.112,0.01c-0.184,0-0.359-0.083-0.481-0.226 c-0.122-0.144-0.171-0.327-0.139-0.514l0.615-3.567c0.055-0.321,0.206-0.611,0.436-0.841l11.031-11.01 C16.135,3.799,16.857,3.5,17.625,3.5 M17.625,3c-0.864,0-1.727,0.33-2.387,0.989L4.208,14.998c-0.302,0.302-0.503,0.689-0.576,1.11 l-0.615,3.567C2.895,20.38,3.445,21,4.129,21c0.065,0,0.131-0.006,0.198-0.017l3.525-0.613c0.418-0.073,0.804-0.273,1.104-0.573 L20.011,8.761c1.318-1.318,1.318-3.455,0-4.773C19.352,3.329,18.489,3,17.625,3L17.625,3z"/><linearGradient id="zpuvCWNyrhxL7Gyg7VyzFc" x1="7.999" x2="12.775" y1="11.221" y2="15.997" gradientUnits="userSpaceOnUse"><stop offset="0" stop-color="#fff" stop-opacity=".7"/><stop offset=".519" stop-color="#fff" stop-opacity=".45"/><stop offset="1" stop-color="#fff" stop-opacity=".55"/></linearGradient><path fill="url(#zpuvCWNyrhxL7Gyg7VyzFc)" d="M19.832,8.94l-1.984,1.978l-4.773-4.773	l1.984-1.978L19.832,8.94z M3.017,19.675c-0.133,0.772,0.538,1.442,1.31,1.308l2.171-0.378L3.392,17.5L3.017,19.675z"/></svg>